<?xml version="1.0" encoding="utf-8"?>
<svg viewBox="0 0 512 512" xmlns="http://www.w3.org/2000/svg">
  <defs/>
  <path fill="#000000" d="M 272.399 0 C 247.099 0 225.199 14.7 214.799 36 C 207.799 33.4 200.299 32 192.399 32 C 157.099 32 128.399 60.7 128.399 96 L 128.399 261.5 L 125.699 258.8 C 100.699 233.8 60.199 233.8 35.199 258.8 C 10.199 283.8 10.199 324.3 35.199 349.3 L 122.899 437 C 170.899 485 235.999 512 303.899 512 L 312.399 512 L 320.399 512 C 321.899 512 323.399 511.9 324.899 511.6 C 416.599 505.4 489.899 432.2 495.999 340.5 C 496.299 339 496.399 337.5 496.399 336 L 496.399 160 C 496.399 124.7 467.699 96 432.399 96 C 426.899 96 421.499 96.7 416.399 98 L 416.399 96 C 416.399 60.7 387.699 32 352.399 32 C 344.499 32 336.999 33.4 329.999 36 C 319.599 14.7 297.699 0 272.399 0 Z M 256.399 96.1 C 256.399 96.1 256.399 96 256.399 96 L 256.399 64 C 256.399 55.2 263.599 48 272.399 48 C 281.199 48 288.399 55.2 288.399 64 L 288.399 95.9 C 288.399 95.9 288.399 96 288.399 96 L 288.399 232 C 288.399 245.3 299.099 256 312.399 256 C 325.699 256 336.399 245.3 336.399 232 L 336.399 96 C 336.399 96 336.399 96 336.399 95.9 C 336.399 87.1 343.599 79.9 352.399 79.9 C 361.199 79.9 368.399 87.1 368.399 95.9 L 368.399 151.8 C 368.399 151.8 368.399 151.9 368.399 151.9 L 368.399 231.9 C 368.399 245.2 379.099 255.9 392.399 255.9 C 405.699 255.9 416.399 245.2 416.399 231.9 L 416.399 160.1 C 416.399 160.1 416.399 160 416.399 160 C 416.399 151.2 423.599 144 432.399 144 C 441.199 144 448.399 151.2 448.399 160 L 448.399 332.9 C 448.299 333.5 448.299 334.2 448.199 334.8 C 444.799 404.5 388.899 460.4 319.199 463.8 C 318.599 463.8 317.899 463.9 317.299 464 L 312.399 464 L 303.899 464 C 248.699 464 195.799 442.1 156.799 403.1 L 69.099 315.3 C 62.899 309.1 62.899 298.9 69.099 292.7 C 75.299 286.5 85.499 286.5 91.699 292.7 L 135.399 336.4 C 142.299 343.3 152.599 345.3 161.599 341.6 C 170.599 337.9 176.399 329.1 176.399 319.4 L 176.399 96 C 176.399 87.2 183.599 80 192.399 80 C 201.199 80 208.399 87.1 208.399 95.9 L 208.399 232 C 208.399 245.3 219.099 256 232.399 256 C 245.699 256 256.399 245.3 256.399 232 L 256.399 96.1 Z" style="transform-box: fill-box; transform-origin: 50% 50%;" transform="matrix(0, 1, -1, 0, 0.00002, 0.000014)"/>
</svg>