<?xml version="1.0" encoding="utf-8"?>
<svg viewBox="0 0 512 512" xmlns="http://www.w3.org/2000/svg">
  <defs/>
  <path fill="#000000" d="M 1.111 251.7 C -0.089 287 27.511 316.7 62.811 317.9 L 66.111 318 L 57.911 319.9 C 23.411 327.5 1.611 361.7 9.211 396.2 C 16.811 430.7 51.111 452.5 85.611 444.8 L 258.611 406.5 C 260.911 409.4 263.311 412.2 265.711 415 L 284.111 435.3 C 300.811 453.5 324.411 464 349.211 464 L 359.411 464 C 413.511 464 463.511 435.3 490.711 388.6 L 492.211 386 C 505.811 362.8 512.911 336.3 512.911 309.4 L 512.911 184 C 512.911 117.7 459.211 64 392.911 64 L 384.911 64 L 288.911 64 C 253.611 64 224.911 92.7 224.911 128 C 224.911 130.8 225.111 133.6 225.411 136.3 C 206.011 147.3 192.911 168.1 192.911 192 C 192.911 192.8 192.911 193.6 192.911 194.4 L 67.311 190 C 32.011 188.8 2.311 216.4 1.111 251.7 Z M 64.511 269.9 C 55.711 269.6 48.811 262.2 49.111 253.4 C 49.411 244.6 56.811 237.7 65.611 238 L 227.111 243.6 C 236.911 243.9 245.811 238.3 249.811 229.4 C 253.811 220.5 252.011 210.1 245.311 203 C 242.511 200.1 240.911 196.3 240.911 192 C 240.911 183.2 248.111 176 256.911 176 C 266.011 176 274.311 170.9 278.411 162.7 C 282.511 154.5 281.611 144.8 276.111 137.6 C 274.111 134.9 272.911 131.6 272.911 128 C 272.911 119.2 280.111 112 288.911 112 L 384.911 112 L 392.911 112 C 432.711 112 464.911 144.2 464.911 184 L 464.911 309.4 C 464.911 327.8 460.011 345.9 450.711 361.8 L 449.211 364.4 C 430.611 396.4 396.411 416 359.411 416 L 349.211 416 C 337.911 416 327.211 411.2 319.611 402.9 L 302.111 418.8 L 319.611 402.9 L 301.211 382.6 C 300.611 382 300.111 381.3 299.511 380.7 L 356.511 367.5 C 365.111 365.5 370.511 356.9 368.511 348.3 C 366.511 339.7 357.911 334.3 349.311 336.3 L 263.711 356 L 75.211 398 C 66.611 399.9 58.011 394.5 56.111 385.8 C 54.211 377.1 59.611 368.6 68.311 366.7 L 255.811 325.1 C 266.011 322.8 273.611 314.2 274.511 303.7 L 274.611 302.7 C 275.211 296.1 273.111 289.6 268.811 284.6 C 264.511 279.6 258.211 276.7 251.611 276.4 L 64.511 269.9 Z" style="transform-origin: 256.992px 264px;" transform="matrix(-1, 0, 0, -1, -0.000032, 0.000019)"/>
</svg>