<?xml version="1.0" encoding="utf-8"?>
<svg viewBox="0 0 448 512" xmlns="http://www.w3.org/2000/svg">
  <defs/>
  <path fill="#000000" d="M 144 84.954 C 144 76.154 151.2 68.954 160 68.954 C 168.8 68.954 176 76.154 176 84.954 C 176 94.054 181.1 102.354 189.3 106.454 C 197.5 110.554 207.2 109.654 214.4 104.154 C 217.1 102.154 220.4 100.954 224 100.954 C 232.8 100.954 240 108.154 240 116.954 C 240 126.054 245.1 134.354 253.3 138.454 C 261.5 142.554 271.2 141.654 278.4 136.154 C 281.1 134.154 284.4 132.954 288 132.954 C 296.8 132.954 304 140.154 304 148.954 C 304 158.054 309.1 166.354 317.3 170.454 C 325.5 174.554 335.2 173.654 342.4 168.154 C 345.1 166.154 348.4 164.954 352 164.954 C 360.8 164.954 368 172.154 368 180.954 L 368 284.954 C 373.826 316.576 278.951 371.983 243.473 370.163 C 233.303 369.641 223.829 373.553 223.829 383.653 L 223.544 413.019 C 259.851 422.458 406.916 376.511 416 284.954 L 416 180.954 C 416 145.654 387.3 116.954 352 116.954 C 349.2 116.954 346.4 117.154 343.7 117.454 C 332.8 98.054 311.9 84.954 288 84.954 C 285.2 84.954 282.4 85.154 279.7 85.454 C 268.8 66.054 247.9 52.954 224 52.954 C 221.2 52.954 218.4 53.154 215.7 53.454 C 204.8 34.054 183.9 20.954 160 20.954 C 124.7 20.954 96 49.654 96 84.954 L 96 149.254 C 84.3 156.654 73.5 165.654 64 176.154 L 81.8 192.254 L 64 176.154 L 54.6 186.654 C 40 202.754 32 223.754 32 245.554 L 32 258.354 C 32 307.954 56.2 354.454 96.8 382.854 L 110.6 363.154 L 96.8 382.854 L 105.7 389.054 C 112.6 395.666 222.135 415.216 230.035 414.931 L 225.196 384.498 C 225.196 371.898 247.955 367.141 235.593 369.708 C 228.293 371.224 139.3 354.191 133.3 349.854 L 120.2 368.554 L 133.3 349.854 L 124.4 343.654 C 96.6 324.054 80 292.254 80 258.354 L 80 245.554 C 80 235.654 83.7 226.154 90.3 218.754 L 99.7 208.254 C 103.5 204.054 107.6 200.154 112 196.654 L 112 228.954 C 112 237.754 119.2 244.954 128 244.954 C 136.8 244.954 144 237.754 144 228.954 L 144 163.254 L 144 148.954 L 144 84.954 Z" style="transform-box: fill-box; transform-origin: 50% 50%;" transform="matrix(0, 1, -1, 0, 0.000001, 0.000018)"/>
</svg>