<?xml version="1.0" encoding="utf-8"?>
<svg viewBox="0 0 512 512" xmlns="http://www.w3.org/2000/svg">
  <defs/>
  <path fill="#000000" d="M 272.399 512 C 247.099 512 225.199 497.3 214.799 476 C 207.799 478.6 200.299 480 192.399 480 C 157.099 480 128.399 451.3 128.399 416 L 128.399 250.5 L 125.699 253.2 C 100.699 278.2 60.199 278.2 35.199 253.2 C 10.199 228.2 10.199 187.7 35.199 162.7 L 122.899 75 C 170.899 27 235.999 0 303.899 0 L 312.399 0 L 320.399 0 C 321.899 0 323.399 0.1 324.899 0.4 C 416.599 6.6 489.899 79.8 495.999 171.5 C 496.299 173 496.399 174.5 496.399 176 L 496.399 352 C 496.399 387.3 467.699 416 432.399 416 C 426.899 416 421.499 415.3 416.399 414 L 416.399 416 C 416.399 451.3 387.699 480 352.399 480 C 344.499 480 336.999 478.6 329.999 476 C 319.599 497.3 297.699 512 272.399 512 Z M 256.399 415.9 C 256.399 415.9 256.399 416 256.399 416 L 256.399 448 C 256.399 456.8 263.599 464 272.399 464 C 281.199 464 288.399 456.8 288.399 448 L 288.399 416.1 C 288.399 416.1 288.399 416 288.399 416 L 288.399 280 C 288.399 266.7 299.099 256 312.399 256 C 325.699 256 336.399 266.7 336.399 280 L 336.399 416 C 336.399 416 336.399 416 336.399 416.1 C 336.399 424.9 343.599 432.1 352.399 432.1 C 361.199 432.1 368.399 424.9 368.399 416.1 L 368.399 360.2 C 368.399 360.2 368.399 360.1 368.399 360.1 L 368.399 280.1 C 368.399 266.8 379.099 256.1 392.399 256.1 C 405.699 256.1 416.399 266.8 416.399 280.1 L 416.399 351.9 C 416.399 351.9 416.399 352 416.399 352 C 416.399 360.8 423.599 368 432.399 368 C 441.199 368 448.399 360.8 448.399 352 L 448.399 179.1 C 448.299 178.5 448.299 177.8 448.199 177.2 C 444.799 107.5 388.899 51.6 319.199 48.2 C 318.599 48.2 317.899 48.1 317.299 48 L 312.399 48 L 303.899 48 C 248.699 48 195.799 69.9 156.799 108.9 L 69.099 196.7 C 62.899 202.9 62.899 213.1 69.099 219.3 C 75.299 225.5 85.499 225.5 91.699 219.3 L 135.399 175.6 C 142.299 168.7 152.599 166.7 161.599 170.4 C 170.599 174.1 176.399 182.9 176.399 192.6 L 176.399 416 C 176.399 424.8 183.599 432 192.399 432 C 201.199 432 208.399 424.9 208.399 416.1 L 208.399 280 C 208.399 266.7 219.099 256 232.399 256 C 245.699 256 256.399 266.7 256.399 280 L 256.399 415.9 Z" style="transform-origin: 256.424px 256px;" transform="matrix(0, 1, -1, 0, -0.000011, 0.000045)"/>
</svg>