<?xml version="1.0" encoding="utf-8"?>
<svg viewBox="0 0 448 512" xmlns="http://www.w3.org/2000/svg">
  <defs/>
  <path fill="#000000" d="M 144 350.934 C 144 359.734 151.2 366.934 160 366.934 C 168.8 366.934 176 359.734 176 350.934 C 176 341.834 181.1 333.534 189.3 329.434 C 197.5 325.334 207.2 326.234 214.4 331.734 C 217.1 333.734 220.4 334.934 224 334.934 C 232.8 334.934 240 327.734 240 318.934 C 240 309.834 245.1 301.534 253.3 297.434 C 261.5 293.334 271.2 294.234 278.4 299.734 C 281.1 301.734 284.4 302.934 288 302.934 C 296.8 302.934 304 295.734 304 286.934 C 304 277.834 309.1 269.534 317.3 265.434 C 325.5 261.334 335.2 262.234 342.4 267.734 C 345.1 269.734 348.4 270.934 352 270.934 C 360.8 270.934 368 263.734 368 254.934 L 368 150.934 C 373.826 119.312 278.951 63.905 243.473 65.725 C 233.303 66.247 223.829 62.335 223.829 52.235 L 223.544 22.869 C 259.851 13.43 406.916 59.377 416 150.934 L 416 254.934 C 416 290.234 387.3 318.934 352 318.934 C 349.2 318.934 346.4 318.734 343.7 318.434 C 332.8 337.834 311.9 350.934 288 350.934 C 285.2 350.934 282.4 350.734 279.7 350.434 C 268.8 369.834 247.9 382.934 224 382.934 C 221.2 382.934 218.4 382.734 215.7 382.434 C 204.8 401.834 183.9 414.934 160 414.934 C 124.7 414.934 96 386.234 96 350.934 L 96 286.634 C 84.3 279.234 73.5 270.234 64 259.734 L 81.8 243.634 L 64 259.734 L 54.6 249.234 C 40 233.134 32 212.134 32 190.334 L 32 177.534 C 32 127.934 56.2 81.434 96.8 53.034 L 110.6 72.734 L 96.8 53.034 L 105.7 46.834 C 112.6 40.222 222.135 20.672 230.035 20.957 L 225.196 51.39 C 225.196 63.99 247.955 68.747 235.593 66.18 C 228.293 64.664 139.3 81.697 133.3 86.034 L 120.2 67.334 L 133.3 86.034 L 124.4 92.234 C 96.6 111.834 80 143.634 80 177.534 L 80 190.334 C 80 200.234 83.7 209.734 90.3 217.134 L 99.7 227.634 C 103.5 231.834 107.6 235.734 112 239.234 L 112 206.934 C 112 198.134 119.2 190.934 128 190.934 C 136.8 190.934 144 198.134 144 206.934 L 144 272.634 L 144 286.934 L 144 350.934 Z" style="transform-origin: 224px 217.944px;" transform="matrix(0, 1, -1, 0, -0.000003, 0.000014)"/>
</svg>